<svg xmlns="http://www.w3.org/2000/svg" width="48" height="64" viewBox="0 0 48 64" shape-rendering="crispEdges">
  <ellipse cx="24" cy="56" rx="13" ry="4" fill="#17212b" fill-opacity=".35"/>
  <path d="M15 52h7v5h-9v-2h2zm11 0h7l2 3v2h-9z" fill="#243342"/>
  <path d="M14 29l10-6 10 6-2 24H16z" fill="#3f819a" stroke="#18394c" stroke-width="2"/>
  <path d="M13 31h5v17h-6zm17 0h5l1 17h-6z" fill="#d2a06f"/>
  <path d="M17 13h14v12l-7 6-7-6z" fill="#d6a273" stroke="#633f35" stroke-width="2"/>
  <path d="M16 14l8-7 8 7-2 4H18z" fill="#543d4b"/>
  <rect x="20" y="20" width="3" height="3" fill="#19232d"/>
  <rect x="26" y="20" width="3" height="3" fill="#19232d"/>
  <path d="M21 26h6v2h-6z" fill="#8c563f"/>
  <path d="M20 32h8v15h-8z" fill="#65a9bf"/>
</svg>
